<svg id="Layer_1" data-name="Layer 1" xmlns="http://www.w3.org/2000/svg" viewBox="0 0 266.04 178.11"><defs><style>.cls-1{fill:#231f20;}.cls-2{fill:#6d6e71;}.cls-3,.cls-4{fill:none;}.cls-3,.cls-4,.cls-5{stroke:#231f20;stroke-miterlimit:10;}.cls-3{stroke-width:2.22px;}.cls-4{stroke-width:0.74px;}.cls-5{fill:#808285;stroke-width:0.67px;}</style></defs><title>SVG5</title><rect class="cls-1" y="26.36" width="57.56" height="100.04" rx="1.48" ry="1.48"/><circle class="cls-2" cx="28.78" cy="112.81" r="5.6"/><rect class="cls-2" x="4.02" y="29.56" width="49.57" height="73.09" rx="1.64" ry="1.64"/><path class="cls-3" d="M38.54,175.82c1.49,12.73-3,27,4.21,37.6,2.88,4.19,7.25,7.08,11.63,9.67,5,3,10.61,5.78,16.39,5,5.41-.7,10.07-4.53,12.83-9.24s3.86-10.21,4.35-15.65c1.13-12.39-.62-25,1.24-37.26.76-5,2.28-10.25,5.94-13.8,4.87-4.71,12.27-5.4,19.05-5.57q9-.23,18.06.17" transform="translate(-12.3 -51.24)"/><path class="cls-1" d="M271.35,204.2H129.48a1.56,1.56,0,0,1-1.48-1.62l-3.07-73.33a1.56,1.56,0,0,1,1.48-1.62H274.74a1.56,1.56,0,0,1,1.48,1.62l-3.39,73.33A1.56,1.56,0,0,1,271.35,204.2Z" transform="translate(-12.3 -51.24)"/><path class="cls-1" d="M272.9,127.63H128.36a1.65,1.65,0,0,1-1.64-1.64l-4-73.1a1.65,1.65,0,0,1,1.64-1.65l152.37.23a1.65,1.65,0,0,1,1.64,1.64L274.54,126A1.65,1.65,0,0,1,272.9,127.63Z" transform="translate(-12.3 -51.24)"/><rect class="cls-2" x="126.05" y="87.2" width="127.08" height="34.91"/><line class="cls-4" x1="138.15" y1="87.2" x2="138.15" y2="122.11"/><line class="cls-4" x1="151.76" y1="87.2" x2="151.76" y2="122.11"/><line class="cls-4" x1="166.06" y1="87.2" x2="166.06" y2="122.11"/><line class="cls-4" x1="179.44" y1="87.2" x2="179.44" y2="122.11"/><line class="cls-4" x1="192.15" y1="87.2" x2="192.15" y2="122.11"/><line class="cls-4" x1="204.72" y1="87.2" x2="204.72" y2="122.11"/><line class="cls-4" x1="218.68" y1="87.2" x2="218.68" y2="122.11"/><line class="cls-4" x1="230.32" y1="87.2" x2="230.32" y2="122.11"/><line class="cls-4" x1="241.96" y1="87.2" x2="241.96" y2="122.11"/><line class="cls-4" x1="126.05" y1="95.29" x2="253.6" y2="95.29"/><line class="cls-4" x1="126.05" y1="104.66" x2="253.6" y2="104.66"/><line class="cls-4" x1="126.05" y1="112.81" x2="253.6" y2="112.81"/><polygon class="cls-5" points="257.31 68.51 120.89 68.51 117.17 5.18 259.79 5.18 257.31 68.51"/><rect class="cls-5" x="168.65" y="128.93" width="42.34" height="15.26"/></svg>