<svg id="Layer_1" data-name="Layer 1" xmlns="http://www.w3.org/2000/svg" viewBox="0 0 109.8 109.68"><defs><style>.cls-1{fill:#00aeef;}.cls-1,.cls-2{stroke:#231f20;stroke-miterlimit:10;}.cls-2{fill:#94c948;stroke-width:0.5px;}</style></defs><title>SVG2</title><circle class="cls-1" cx="54.96" cy="54.84" r="54.34"/><path class="cls-2" d="M115,93.66s16.54,3.54,18.13,5.14,4.79,5.31,4.79,5.31l5,2v3.19l-6.56,2.84.71,5.14,4.34,4.34,5.94,10.19L138.58,135l2.66,1.06-1.77,1.77h-5v5l-2.66.88L128.48,147l-2.83,2.48-4.79,8,1.42,3.55,2.92,2.92-2,7.18h-2L112,175l0,7.1s-13-10-18.75-26.56C87.05,137.55,89,112.15,115,93.66Z" transform="translate(-90.06 -84.09)"/><path class="cls-2" d="M119.05,186.67,131,180.49l5,3.09,3.54-1.85,7.8,6.38,3.81-3.81,5.23,1.86,1.86-1.86,2.21-3.81,3,3h8.69s2.3-1.77,3.19-.88,2.07,0,2.07,0S153,204,119.05,186.67Z" transform="translate(-90.06 -84.09)"/><path class="cls-2" d="M162,93.66l-4.43,2.48-5.14,5.14,6.73,2.12-4.78,8.51H162l10.1-1.24,3.72,2.13,2.3,4.25V121l8.51,1.77,3.19,6.2v3.37l9.49,9.49s2-31.82-24.21-48.12L171,97.73Z" transform="translate(-90.06 -84.09)"/></svg>