<svg id="Layer_1" data-name="Layer 1" xmlns="http://www.w3.org/2000/svg" viewBox="0 0 278.3 102.01"><defs><style>.cls-1{fill:#00598b;}.cls-2{font-size:79px;font-family:AdellePE-Bold, Adelle PE;font-weight:700;}.cls-2,.cls-4{fill:#fff;}.cls-3{fill:#ed1c24;}.cls-5,.cls-6{fill:#231f20;}.cls-5{stroke:#231f20;}.cls-5,.cls-7{stroke-miterlimit:10;stroke-width:2px;}.cls-7{fill:none;stroke:#fff;}</style></defs><title>SVG3</title><rect class="cls-1" x="1.29" y="8.93" width="80.41" height="83.82"/><text class="cls-2" transform="translate(0 78.86)">W</text><rect class="cls-3" x="90.82" y="12.79" width="82.48" height="76.1"/><polygon class="cls-4" points="137.81 88.89 90.82 88.89 144.03 12.79 173.3 88.89 163.76 88.89 145.22 37.07 121.27 70.97 138.04 71.26 137.81 88.89"/><rect class="cls-5" x="185.15" y="30.65" width="92.15" height="62.09"/><rect class="cls-6" x="186.57" y="59.81" width="92.15" height="15.4" transform="translate(-12.23 -12.34) rotate(-9.63)"/><rect class="cls-4" x="185.15" y="30.81" width="17.11" height="11.43"/><rect class="cls-4" x="218.95" y="30.81" width="17.11" height="11.43"/><rect class="cls-4" x="252.26" y="30.81" width="17.11" height="11.43"/><rect class="cls-4" x="260.19" y="81.32" width="17.11" height="11.43"/><rect class="cls-4" x="227.5" y="81.32" width="17.11" height="11.43"/><rect class="cls-4" x="194.81" y="81.32" width="17.11" height="11.43"/><line class="cls-7" x1="185.15" y1="42.24" x2="277.3" y2="42.24"/><line class="cls-7" x1="185.15" y1="81.32" x2="277.3" y2="81.32"/></svg>